<svg width="24" height="24" viewBox="0 0 24 24" fill="none" xmlns="http://www.w3.org/2000/svg">
<g clip-path="url(#clip0_511_658)">
<path d="M24 18C24 18.7073 23.719 19.3855 23.219 19.8856C22.7189 20.3857 22.0406 20.6667 21.3333 20.6667H2.66667C1.95942 20.6667 1.28115 20.3857 0.781049 19.8856C0.280952 19.3855 0 18.7073 0 18V6.00001C0 5.29277 0.280952 4.61449 0.781049 4.11439C1.28115 3.61429 1.95942 3.33334 2.66667 3.33334H21.3333C22.0406 3.33334 22.7189 3.61429 23.219 4.11439C23.719 4.61449 24 5.29277 24 6.00001V18Z" fill="#4B92DB"/>
<path d="M7.03602 10.3533C7.13536 10.15 7.29802 9.95601 7.48936 9.81134C7.91602 9.48934 8.38269 9.07268 8.38936 8.52468C8.24802 8.91868 7.81869 9.08201 7.53269 9.35134C7.38136 9.49401 7.26602 9.66534 7.19802 9.84334L7.18802 9.83534C7.22336 9.67734 7.29069 9.53468 7.33602 9.38201C7.46069 8.96468 7.43802 8.46534 7.84469 8.18668C7.63536 8.24001 7.46002 8.37534 7.30336 8.54934C6.97536 8.91268 7.00402 9.44934 7.04736 9.92801C7.06069 10.076 7.05269 10.202 7.03602 10.3533V10.3533ZM9.18069 15.5073C8.70736 15.1253 8.63602 14.5527 8.42469 14.05C8.29336 13.738 8.08002 13.4573 7.85202 13.1847C8.10269 13.6853 7.99469 14.3313 8.31936 14.8033C8.42136 14.9513 8.56336 15.0927 8.69402 15.2113L8.68802 15.2173C8.56738 15.156 8.45513 15.0793 8.35402 14.9893C7.78536 14.5167 6.93002 14.456 6.58936 13.6853C6.68136 14.2513 7.13069 14.7527 7.61602 15.07C8.07736 15.372 8.66802 15.338 9.18069 15.5073V15.5073Z" fill="white"/>
<path d="M7.046 13.9193C7.36666 14.172 7.74933 14.3693 8.04133 14.5913C7.984 14.446 7.89 14.312 7.852 14.158C7.68 13.4647 7.776 12.6627 7.47866 12.0213C7.534 12.386 7.38933 12.708 7.356 13.0547C7.32866 13.34 7.37866 13.6167 7.48933 13.8567C7.522 13.9273 7.58133 13.9913 7.598 14.064C7.49133 13.968 7.41533 13.8447 7.342 13.7253C6.99733 13.1673 6.274 12.804 6.22466 12.1253C6.2 12.4273 6.22666 12.748 6.32733 13.016C6.46733 13.3887 6.736 13.6753 7.046 13.9193V13.9193ZM7.53266 9.16533C7.76 8.952 8.024 8.794 8.21666 8.53933C8.448 8.23333 8.64933 7.89266 8.95066 7.62866C8.54 7.78866 8.1 7.952 7.83333 8.37333C7.678 8.61933 7.65533 8.91066 7.53266 9.16533V9.16533ZM10.402 15.8127C10.488 15.7913 10.5927 15.798 10.6727 15.7693C10.3407 15.702 10.02 15.6013 9.76266 15.366C9.39333 15.028 9.066 14.668 8.67066 14.4053C8.98 14.822 9.068 15.4267 9.63333 15.64C9.73333 15.678 9.848 15.684 9.93466 15.7387C9.826 15.7553 9.73066 15.722 9.62933 15.7C8.90066 15.5447 8.01066 15.7447 7.46466 15.1233C7.672 15.5293 8.09866 15.85 8.508 15.9853C9.14333 16.194 9.80533 15.9607 10.402 15.8127V15.8127Z" fill="white"/>
<path d="M7.14928 13.2273L7.17995 13.252C7.14728 13.028 7.13061 12.7867 7.19395 12.5727C7.29061 12.2307 7.41128 11.898 7.47528 11.5433C7.52461 11.268 7.58128 10.9587 7.54928 10.6913C7.51261 10.8353 7.47461 10.9773 7.39528 11.1C7.09528 11.5647 6.78661 12.11 6.99728 12.7C6.99261 12.7067 6.98528 12.7147 6.97795 12.71C6.89328 12.5153 6.87461 12.2933 6.81995 12.084C6.67461 11.53 6.24795 11.0667 6.37328 10.426C6.30728 10.5653 6.28061 10.722 6.24595 10.8733C6.17195 11.2653 6.24595 11.6807 6.35261 12.0407C6.48461 12.492 6.92595 12.8147 7.14928 13.2273V13.2273Z" fill="white"/>
<path d="M7.70471 10.244C7.80405 10.0427 7.86605 9.81532 7.89338 9.59332C7.85539 9.69053 7.79643 9.77817 7.72071 9.84999C7.38938 10.164 6.99871 10.474 6.92338 10.9187C6.91271 10.982 6.90738 11.0473 6.88871 11.1093C6.87405 11.1153 6.87405 11.0993 6.86805 11.0953L6.90938 10.5433C6.94938 10.0053 6.66605 9.40666 6.97738 8.93266C6.96671 8.93066 6.96071 8.93866 6.95271 8.94332C6.66938 9.30466 6.48071 9.69999 6.48071 10.1847C6.48071 10.7833 6.82538 11.2013 6.86805 11.764C6.95671 11.1773 7.44938 10.7607 7.70471 10.244V10.244ZM17.1814 12.0847C17.1267 12.2933 17.108 12.5153 17.0234 12.7107C17.0154 12.7147 17.0087 12.7067 17.004 12.7007C17.214 12.1107 16.906 11.5653 16.606 11.1007C16.5274 10.9787 16.4894 10.836 16.452 10.692C16.4194 10.9593 16.4767 11.268 16.526 11.544C16.5894 11.8987 16.7107 12.2313 16.8074 12.5733C16.8707 12.7873 16.854 13.0287 16.8214 13.2527L16.852 13.228C17.0754 12.8153 17.5167 12.4927 17.65 12.0427C17.7567 11.6827 17.83 11.2667 17.7567 10.8753C17.722 10.724 17.6954 10.5667 17.6294 10.428C17.7534 11.0673 17.3267 11.53 17.1814 12.0847ZM15.6467 14.9893C15.5456 15.0793 15.4334 15.156 15.3127 15.2173L15.3067 15.2113C15.438 15.0927 15.58 14.9513 15.6814 14.8033C16.0067 14.3313 15.898 13.6853 16.1487 13.1847C15.9207 13.4573 15.7074 13.738 15.576 14.05C15.3647 14.5527 15.2934 15.1253 14.82 15.5073C15.332 15.3387 15.9234 15.372 16.384 15.07C16.8687 14.7527 17.318 14.2513 17.4107 13.6853C17.0707 14.456 16.2154 14.516 15.6467 14.9893V14.9893Z" fill="white"/>
<path d="M14.0659 15.738C14.1525 15.6833 14.2672 15.6767 14.3672 15.6393C14.9325 15.426 15.0205 14.8213 15.3299 14.4047C14.9345 14.6673 14.6072 15.0273 14.2379 15.3653C13.9805 15.6007 13.6605 15.7013 13.3279 15.7687C13.4079 15.798 13.5119 15.7913 13.5985 15.812C14.1952 15.96 14.8572 16.194 15.4925 15.984C15.9025 15.8487 16.3292 15.5287 16.5359 15.122C15.9899 15.7433 15.0999 15.5433 14.3712 15.6987C14.2699 15.7213 14.1745 15.7547 14.0659 15.738V15.738ZM16.4025 14.064C16.4192 13.992 16.4785 13.9273 16.5112 13.8567C16.6258 13.6058 16.6718 13.3291 16.6445 13.0547C16.6112 12.708 16.4665 12.386 16.5219 12.0213C16.2245 12.6627 16.3205 13.4647 16.1485 14.158C16.1105 14.3113 16.0172 14.446 15.9592 14.5913C16.2512 14.3693 16.6339 14.172 16.9545 13.9193C17.2645 13.6753 17.5332 13.3887 17.6732 13.016C17.7739 12.7473 17.7999 12.4273 17.7752 12.1253C17.7259 12.8047 17.0032 13.1673 16.6579 13.7253C16.5852 13.8447 16.5092 13.968 16.4025 14.064ZM17.0912 10.544L17.1325 11.096C17.1265 11.1 17.1265 11.1167 17.1119 11.11C17.0932 11.0487 17.0879 10.9833 17.0772 10.9193C17.0019 10.4747 16.6112 10.1647 16.2799 9.85068C16.204 9.77903 16.145 9.69134 16.1072 9.59401C16.1345 9.81601 16.1965 10.0427 16.2959 10.2447C16.5512 10.7613 17.0439 11.178 17.1319 11.7647C17.1745 11.202 17.5192 10.784 17.5192 10.1853C17.5192 9.70068 17.3305 9.30535 17.0472 8.94401C17.0392 8.94001 17.0332 8.93201 17.0225 8.93335C17.3352 9.40735 17.0512 10.006 17.0912 10.544V10.544Z" fill="white"/>
<path d="M16.6654 9.38268C16.7107 9.53535 16.7774 9.67801 16.8134 9.83601L16.8034 9.84401C16.7302 9.65696 16.6158 9.4888 16.4687 9.35201C16.1834 9.08268 15.7534 8.91935 15.6121 8.52535C15.6187 9.07335 16.0854 9.48935 16.5121 9.81201C16.7034 9.95668 16.8661 10.1507 16.9654 10.354C16.9469 10.213 16.9433 10.0704 16.9547 9.92868C16.9987 9.45001 17.0267 8.91335 16.6987 8.55001C16.5421 8.37601 16.3661 8.24068 16.1574 8.18735C16.5627 8.46601 16.5407 8.96535 16.6654 9.38268V9.38268ZM14.1501 16.2267C13.6594 16.0233 13.1601 15.7527 12.6007 15.7527C12.3974 15.7527 12.1961 15.7873 12.0001 15.846C11.8055 15.7855 11.6031 15.754 11.3994 15.7527C10.8401 15.7527 10.3407 16.0233 9.85007 16.2267C9.40607 16.4107 8.81741 16.3747 8.42407 16.1033C8.61874 16.3473 8.87874 16.498 9.14807 16.6C9.64741 16.7993 10.2307 16.6467 10.6561 16.3747C10.9621 16.1787 11.2247 15.9013 11.5894 15.9013C11.6547 15.9013 11.7207 15.9113 11.7861 15.9253C11.2734 16.13 10.8067 16.4887 10.4427 16.836C10.5094 16.9127 10.5961 16.984 10.6774 17.0493C11.0827 16.6307 11.5421 16.18 11.9994 15.9927C12.4574 16.18 12.9167 16.6307 13.3214 17.0493C13.4027 16.9833 13.4894 16.912 13.5561 16.836C13.1927 16.4887 12.7254 16.1307 12.2127 15.9253C12.2787 15.9113 12.3441 15.9013 12.4094 15.9013C12.7741 15.9013 13.0367 16.1787 13.3427 16.3747C13.7681 16.6467 14.3507 16.7993 14.8507 16.6C15.1194 16.498 15.3801 16.348 15.5747 16.1033C15.1834 16.3747 14.5941 16.4107 14.1501 16.2267V16.2267Z" fill="white"/>
<path d="M16.468 9.16534C16.3453 8.91067 16.3226 8.61934 16.1666 8.37267C15.9 7.95134 15.46 7.788 15.0493 7.628C15.3506 7.89267 15.552 8.23267 15.7833 8.53867C15.9766 8.794 16.2406 8.952 16.468 9.16534ZM8.37731 9.542L8.33131 9.51734C8.05418 10.0783 7.91022 10.6956 7.91065 11.3213C7.91065 11.7173 7.96731 12.104 8.07531 12.474L8.17198 12.45C8.06947 12.0994 8.01519 11.7365 8.01065 11.3713H8.74798C8.75265 11.68 8.79998 11.982 8.88731 12.27L8.98265 12.246C8.89636 11.9623 8.85035 11.6679 8.84598 11.3713H9.51398C9.51598 11.47 9.52798 11.5667 9.54065 11.6633C9.50874 11.6673 9.47728 11.6742 9.44665 11.684L9.42598 11.7513C9.38065 11.76 9.35198 11.8353 9.35198 11.8353C9.31465 11.848 9.28598 11.894 9.29865 11.9067C9.31065 11.9193 9.27798 11.9233 9.27798 11.9233V12.0153L9.25731 12.0447L9.26131 12.1453C9.28598 12.1453 9.28198 12.1913 9.28198 12.1913C9.24065 12.1953 9.24865 12.25 9.24865 12.25L9.16198 12.2793L9.14531 12.3047L9.03798 12.3007L9.01198 12.3273C9.00331 12.3007 8.99065 12.2753 8.98265 12.248L8.88731 12.272C8.88998 12.282 8.89465 12.2913 8.89798 12.3007H8.77465L8.76665 12.28L8.72531 12.2713L8.72131 12.2253L8.65931 12.2293L8.64665 12.2547L8.58065 12.2587C8.58465 12.3007 8.51465 12.3633 8.50665 12.3467C8.49798 12.33 8.45265 12.284 8.47331 12.2753C8.49398 12.2667 8.54731 12.2587 8.54731 12.2587V12.2293L8.39465 12.2253L8.37798 12.2507L8.31598 12.2547V12.322L8.28731 12.3307C8.26665 12.3433 8.29131 12.3893 8.29131 12.3893C8.31998 12.4187 8.28731 12.4647 8.28731 12.4647C8.26265 12.49 8.30798 12.536 8.30798 12.536C8.34131 12.544 8.28731 12.5693 8.28731 12.5693C8.29531 12.6113 8.31998 12.624 8.31998 12.624C8.29531 12.666 8.33665 12.6867 8.33665 12.6867L8.34065 12.758L8.36931 12.7747V12.8207L8.38598 12.85H8.45198L8.44798 12.7453C8.38998 12.678 8.49731 12.6613 8.50198 12.6867C8.50598 12.712 8.55131 12.7247 8.55131 12.7247C8.55931 12.7873 8.62998 12.8253 8.64998 12.7627C8.67065 12.7 8.68731 12.7373 8.69931 12.7667C8.72553 12.8036 8.75595 12.8374 8.78998 12.8673H8.85198L8.85998 12.926C8.92998 12.922 8.95065 12.93 8.97931 13.0267C8.98662 13.0538 9.00011 13.0789 9.01873 13.0999C9.03736 13.121 9.0606 13.1374 9.08665 13.148L9.14465 13.144C9.14465 13.094 9.20265 13.1527 9.20265 13.1773C9.20265 13.2027 9.31398 13.2987 9.31398 13.2987L9.42531 13.324L9.45731 13.35C9.52331 13.4327 9.58998 13.514 9.66465 13.5907L9.14331 14.112C8.68808 13.6475 8.35425 13.0781 8.17131 12.454L8.07465 12.478C8.26465 13.1287 8.61531 13.7247 9.10798 14.2173C9.44131 14.5507 9.82265 14.8193 10.236 15.0173L10.2846 14.9307C9.88867 14.7416 9.5265 14.4887 9.21265 14.182L9.73398 13.6607C10.0046 13.9233 10.314 14.1333 10.648 14.286L10.6966 14.2C10.3662 14.0501 10.0642 13.8442 9.80398 13.5913L9.89598 13.4993C9.90198 13.5093 9.90998 13.5133 9.91198 13.53C9.91998 13.5927 9.94931 13.58 9.94931 13.58L10.1846 13.576L10.2673 13.5047L10.478 13.5007C10.5853 13.4967 10.5193 13.35 10.4986 13.35C10.4846 13.3387 10.4846 13.314 10.488 13.288C10.6566 13.418 10.834 13.5333 11.0273 13.616L11.076 13.53C10.8164 13.4197 10.5783 13.2644 10.3726 13.0713L10.348 13.0487L10.8673 12.5293C11.0346 12.6873 11.23 12.8067 11.4413 12.882L11.4906 12.7947C11.2846 12.7231 11.0961 12.6088 10.9373 12.4593L11.41 11.986C11.554 12.1147 11.7333 12.188 11.9253 12.204L11.9246 12.2093C11.9246 12.2093 11.9093 12.2473 11.928 12.2533C11.9466 12.2593 11.94 12.2627 11.9493 12.272L11.94 12.294C11.9246 12.2733 11.9153 12.31 11.9246 12.3193C11.934 12.3287 11.9033 12.3227 11.9033 12.3353C11.9033 12.348 11.894 12.354 11.9033 12.3607C11.9126 12.3667 11.9 12.37 11.888 12.3793C11.8753 12.3887 11.9406 12.392 11.9406 12.392C11.9406 12.392 11.9286 12.3667 11.944 12.3667L11.9506 12.368V12.4C11.9433 12.3987 11.942 12.4013 11.9333 12.3993V12.4287L11.9 12.4327L11.9286 12.466L11.95 12.4687V12.5373L11.9493 12.5413C11.9493 12.596 11.8133 12.558 11.8006 12.5453L11.7966 12.6207L11.772 12.6247L11.776 12.6747L11.772 12.746L11.8173 12.7373V12.7667L11.9286 12.7707L11.95 12.748V12.8253L11.9493 12.8293L11.8753 12.838L11.8446 12.854L11.842 12.8533L11.8306 12.83H11.798L11.788 12.8433C11.688 12.8293 11.586 12.8213 11.4913 12.7887L11.442 12.876C11.5026 12.898 11.5653 12.912 11.6286 12.9267C11.6186 12.9353 11.6013 12.9453 11.604 12.9513C11.612 12.972 11.5713 12.9933 11.5713 12.9933L11.534 13.006L11.5093 13.044L11.46 13.0607L11.452 13.1487L11.4273 13.1653V13.2033L11.3986 13.2113V13.232L11.3573 13.236L11.382 13.2987L11.4153 13.3153C11.4733 13.3233 11.448 13.3947 11.448 13.3947L11.4806 13.3987L11.4973 13.4447L11.53 13.5113C11.5426 13.5613 11.5793 13.5493 11.596 13.5447C11.6126 13.5407 11.6286 13.5947 11.6286 13.5947L11.7933 13.5987C11.7933 13.5987 11.7853 13.6153 11.814 13.624C11.83 13.6287 11.894 13.6327 11.9506 13.634V13.708C11.6501 13.7024 11.3533 13.64 11.076 13.524L11.0273 13.61C11.3196 13.7342 11.6331 13.801 11.9506 13.8067V14.4747C11.5183 14.4687 11.0918 14.3734 10.698 14.1947L10.6493 14.2807C11.0583 14.4673 11.5017 14.5668 11.9513 14.5727V15.31C11.3749 15.3038 10.8067 15.1725 10.286 14.9253L10.2373 15.012C10.7806 15.272 11.38 15.41 12.0006 15.41C12.6408 15.4111 13.2721 15.261 13.8433 14.972L13.7966 14.8813C13.27 15.148 12.6773 15.302 12.05 15.31V14.5727C12.3441 14.5668 12.6361 14.521 12.918 14.4367L12.998 14.4613L13.0186 14.5287L13.052 14.5247L13.0766 14.504L13.1753 14.5L13.2246 14.454L13.278 14.446L13.71 14.0787C13.906 13.9567 14.0953 13.8213 14.2646 13.6567L14.7846 14.1767C14.493 14.4612 14.1596 14.6995 13.796 14.8833L13.8426 14.974C14.6431 14.5688 15.2888 13.9127 15.6813 13.106L15.6806 13.1053L15.6233 13.074L15.6806 13.1053C15.9502 12.5493 16.0897 11.9393 16.0886 11.3213C16.0886 10.7867 15.986 10.2687 15.792 9.788C15.586 9.27946 15.2797 8.81762 14.8913 8.43C14.5022 8.03999 14.0382 7.73271 13.5273 7.52667V7.52734C13.042 7.33133 12.5234 7.23105 12 7.232C11.3426 7.232 10.7213 7.38867 10.1706 7.666L10.2153 7.752C10.7543 7.48195 11.3478 7.33831 11.9506 7.332V8.06934C11.4671 8.07634 10.9912 8.19161 10.558 8.40667L10.6026 8.49267C11.022 8.28501 11.4827 8.17406 11.9506 8.168V8.836C11.5908 8.84287 11.2368 8.92819 10.9133 9.086L10.9586 9.172C11.2684 9.02179 11.6071 8.94058 11.9513 8.934V9.67134C11.7193 9.678 11.5 9.73334 11.3013 9.826L11.3466 9.91267C11.5346 9.82534 11.7393 9.776 11.9513 9.77V10.4387C11.8756 10.4461 11.8012 10.4634 11.73 10.49H11.6993L11.6953 10.444L11.716 10.4313L11.6826 10.4187L11.658 10.452L11.65 10.49L11.6086 10.4987V10.5193H11.58V10.556C11.5213 10.5887 11.4613 10.6187 11.4113 10.6627L10.938 10.1893C11.0584 10.0757 11.1964 9.98232 11.3466 9.91267L11.3013 9.826C11.1427 9.90052 10.9968 9.99976 10.8693 10.12L10.3473 9.598C10.5306 9.422 10.7366 9.27934 10.9593 9.17134L10.914 9.08534C10.6803 9.19928 10.466 9.3491 10.2786 9.52934L9.80598 9.05667C10.0411 8.82837 10.3103 8.63809 10.604 8.49267L10.5593 8.40667C10.2568 8.55656 9.97944 8.75269 9.73731 8.988L9.21465 8.46534C9.50963 8.17685 9.84767 7.93598 10.2166 7.75134L10.172 7.66534C9.37428 8.0666 8.72871 8.71638 8.33265 9.51667L8.37731 9.542V9.542ZM9.90198 11.3707L9.90465 11.394L9.84265 11.4613L9.85065 11.528L9.81331 11.5407L9.80531 11.57L9.78865 11.658L9.82998 11.662C9.85065 11.6533 9.84665 11.7167 9.82998 11.7247C9.81331 11.7333 9.76798 11.75 9.79265 11.7667C9.81731 11.7833 9.72665 11.7793 9.72665 11.754C9.72665 11.7287 9.67731 11.708 9.66465 11.7167C9.65798 11.7213 9.64931 11.7107 9.64265 11.6987C9.62471 11.5902 9.61447 11.4806 9.61198 11.3707H9.90198V11.3707ZM9.63065 13.3953H9.64065C9.66131 13.324 9.75998 13.3993 9.76865 13.4247C9.77198 13.434 9.78598 13.444 9.79865 13.454L9.73531 13.5173C9.69798 13.478 9.66598 13.4353 9.63065 13.3953ZM10.2766 12.9747C10.2406 12.9373 10.2166 12.892 10.1833 12.8527C10.1906 12.832 10.2013 12.8133 10.2013 12.8133C10.2546 12.78 10.1886 12.7253 10.1886 12.7253C10.1966 12.6747 10.16 12.6167 10.16 12.6167C10.086 12.5667 10.1066 12.47 10.1066 12.47V12.4033C10.0446 12.3447 10.1313 12.336 10.1313 12.336C10.16 12.286 10.1106 12.248 10.1106 12.248L10.1066 12.1933L10.0406 12.1847L10.0326 11.988L9.88398 11.7747C9.85531 11.766 9.87598 11.716 9.87598 11.716C9.91331 11.6953 9.86798 11.6447 9.86798 11.6447L9.86398 11.5527L9.95065 11.544L9.97131 11.5107H10.0126L10.0086 11.402C10.0186 11.376 10.0353 11.37 10.05 11.37H10.0553C10.0673 11.372 10.0786 11.3767 10.0786 11.3767L10.1366 11.3807L10.1426 11.37H10.3393L10.356 11.4773L10.3026 11.5233C10.2573 11.5487 10.2573 11.6073 10.3066 11.6193C10.3393 11.6233 10.3273 11.7033 10.278 11.6487C10.204 11.6487 10.3193 11.716 10.286 11.6987C10.36 11.7367 10.344 11.6653 10.344 11.6653L10.382 11.6353C10.4412 11.942 10.5864 12.2255 10.8006 12.4527L10.2766 12.9747V12.9747ZM10.1313 11.264C10.082 11.2347 10.1066 11.126 10.1066 11.126C10.1853 11.0087 10.276 11.076 10.276 11.076L10.334 11.072C10.354 11.0853 10.364 11.102 10.3693 11.1193C10.3653 11.1493 10.36 11.1787 10.358 11.2093C10.3532 11.2196 10.3479 11.2297 10.342 11.2393C10.3373 11.246 10.338 11.26 10.3366 11.272H10.1766L10.1773 11.2687L10.1313 11.264V11.264ZM11.0473 11.432L11.064 11.4067L11.0706 11.3707H11.1173C11.1186 11.3953 11.13 11.4167 11.1333 11.4407L11.13 11.4567L11.1013 11.4653L11.0933 11.4487L11.0813 11.4947H11.0073L11.0033 11.4447L11.0473 11.432V11.432ZM10.868 12.384C10.7238 12.2313 10.6124 12.0507 10.5406 11.8533C10.5097 11.766 10.4867 11.6761 10.472 11.5847C10.5066 11.598 10.544 11.6527 10.544 11.6627C10.544 11.6753 10.7086 11.6667 10.7086 11.6667C10.754 11.696 10.7706 11.7713 10.7706 11.7713C10.816 11.7127 10.9106 11.7673 10.8406 11.8007C10.9066 11.8427 10.9066 11.88 10.9066 11.88C10.9606 11.8633 10.9606 11.9053 10.9606 11.918C10.9606 11.9307 10.9773 11.8553 10.9773 11.8553C10.9153 11.8093 11.06 11.7927 11.0186 11.876L10.9933 11.9133L11.0346 11.9467L11.0386 12.0427C11.1293 12.034 11.1046 11.9213 11.1046 11.9213L11.146 11.9133C11.146 11.8753 11.1746 11.8967 11.1746 11.8967C11.152 11.7833 11.2053 11.7453 11.2293 11.734C11.262 11.7953 11.2933 11.858 11.3406 11.9107L10.868 12.384V12.384ZM11.292 11.6513C11.2973 11.626 11.2986 11.6033 11.2986 11.6033C11.2613 11.5867 11.282 11.528 11.3233 11.578C11.3646 11.628 11.2986 11.4773 11.2986 11.4773L11.266 11.448L11.238 11.4453C11.2313 11.4033 11.2133 11.364 11.2133 11.3207C11.2133 11.3007 11.2233 11.2833 11.2246 11.264C11.2326 11.262 11.2413 11.2633 11.2413 11.2633L11.266 11.284L11.3033 11.3133L11.3073 11.3387L11.2826 11.3513L11.2786 11.3847L11.2913 11.4307H11.324C11.3366 11.3633 11.4233 11.3633 11.448 11.4053L11.4726 11.3467C11.4146 11.3173 11.4713 11.2713 11.488 11.292C11.5046 11.3127 11.5426 11.2373 11.5426 11.2373C11.5426 11.2373 11.5713 11.2753 11.5426 11.2247C11.514 11.1747 11.5633 11.1493 11.5633 11.1493C11.5553 11.0993 11.6166 11.1073 11.6166 11.1073L11.6206 11.0407L11.5626 11.0367C11.5506 11.0953 11.5006 11.0453 11.5253 11.0327C11.55 11.02 11.5746 10.9947 11.5746 10.9947V10.9527L11.5993 10.944L11.6033 10.902H11.6653L11.7186 10.8767L11.7313 10.856L11.7893 10.852L11.872 10.7767L11.864 10.7433C11.8146 10.7433 11.864 10.7053 11.864 10.7053L11.872 10.6427H11.8266L11.82 10.568C11.8766 10.5547 11.932 10.5347 11.992 10.5347L12 10.6353L11.9546 10.62H11.926L11.914 10.5947L11.8893 10.5907V10.6827L11.914 10.7033L11.9346 10.724L11.976 10.728L11.984 10.778L12.0873 10.782L12.1 10.8027L12.162 10.8067L12.2813 10.928L12.2733 10.966L12.2526 10.9787C12.2606 11.008 12.1993 10.9913 12.1993 10.9913V11.0167L12.228 11.0207L12.2566 11.0373L12.298 10.966C12.3433 10.9367 12.364 10.9787 12.368 11.004C12.372 11.0293 12.3473 11.0247 12.3473 11.0247V11.0833L12.372 11.092C12.4133 11.142 12.3553 11.1713 12.3553 11.1713L12.3426 11.2133C12.33 11.2513 12.2846 11.2427 12.2846 11.2427L12.268 11.268L12.2186 11.2807L12.3166 11.2933C12.326 11.26 12.3506 11.2513 12.3633 11.268C12.376 11.2847 12.376 11.314 12.376 11.314L12.4006 11.318L12.3966 11.364L12.4213 11.3727V11.5067L12.45 11.54C12.4993 11.5193 12.4993 11.5527 12.4746 11.5693C12.45 11.586 12.4666 11.6613 12.4666 11.6613L12.446 11.682V11.7153L12.4206 11.7333V11.7793C12.3793 11.7587 12.33 11.7667 12.3173 11.7793C12.28 11.754 12.202 11.7627 12.202 11.7833C12.2266 11.8167 12.1733 11.8253 12.1733 11.8253L12.1446 11.8587C12.1653 11.9007 12.124 11.9047 12.124 11.9047V11.984L12.0746 12.03L12.0773 12.092C12.0506 12.0947 12.028 12.1073 12.0006 12.1073C11.808 12.1073 11.63 12.0313 11.4866 11.9053C11.4873 11.9047 11.4886 11.9053 11.4893 11.904C11.4951 11.8943 11.5028 11.886 11.512 11.8794C11.5212 11.8729 11.5316 11.8683 11.5426 11.866L11.5553 11.8367L11.6666 11.8407C11.6746 11.7947 11.7286 11.8113 11.7286 11.832C11.7286 11.8527 11.77 11.836 11.77 11.836L11.7986 11.79H11.844L11.848 11.74L11.8686 11.7273V11.652C11.9346 11.6313 11.9266 11.568 11.9266 11.568L11.9433 11.5473L11.9353 11.518C11.902 11.5053 11.9186 11.476 11.9393 11.4847C11.96 11.4933 11.9106 11.4467 11.9106 11.4467C11.886 11.4673 11.8653 11.4213 11.8653 11.4213H11.8033V11.3627L11.7953 11.308L11.7333 11.2787L11.688 11.3207L11.68 11.3793V11.4167L11.6386 11.4253L11.6306 11.538L11.598 11.5507L11.602 11.5927L11.5566 11.6053L11.5113 11.618L11.5033 11.6727L11.4706 11.6933L11.454 11.7433L11.4346 11.8573C11.375 11.7979 11.3266 11.7281 11.292 11.6513V11.6513ZM13.4846 9.464C13.4904 9.46991 13.4969 9.47506 13.504 9.47934C13.5233 9.49534 13.544 9.51 13.5633 9.52667V9.552C13.5933 9.54467 13.636 9.582 13.6413 9.61067L13.132 10.12C12.9874 9.98377 12.8197 9.87449 12.6366 9.79734C12.4502 9.7198 12.2511 9.67709 12.0493 9.67134V8.934C12.348 8.94 12.6373 9.00067 12.906 9.11067C13.1146 9.19667 13.306 9.32134 13.4846 9.464V9.464ZM13.9433 9.44734C14.002 9.48067 14.0493 9.554 14.042 9.56867C14.034 9.58534 14.0913 9.58134 14.0913 9.58134C14.0993 9.506 14.17 9.53134 14.174 9.556C14.178 9.58134 14.1906 9.63534 14.1906 9.63534L14.2113 9.67267L14.24 9.702L14.2853 9.698L14.298 9.72334L14.3513 9.732C14.3513 9.732 14.3966 9.782 14.4006 9.79467C14.4046 9.80734 14.4666 9.80334 14.4833 9.80734C14.5 9.81134 14.5246 9.824 14.5286 9.84534C14.5326 9.866 14.5573 9.9 14.5573 9.9C14.5573 9.9 14.6066 9.91267 14.6106 9.92934C14.6173 9.94822 14.6256 9.9665 14.6353 9.984L14.6766 10.0173L14.6806 10.0553L14.726 10.0593L14.7386 10.1093L14.8126 10.1053L14.854 10.076C14.8646 10.07 14.8713 10.0633 14.8806 10.0573C14.896 10.092 14.9186 10.1227 14.932 10.1573C15.0713 10.508 15.1473 10.884 15.1533 11.272H14.4853C14.4811 11.16 14.4691 11.0484 14.4493 10.938C14.456 10.9147 14.4613 10.892 14.4533 10.884C14.4413 10.8713 14.466 10.8127 14.466 10.8127C14.466 10.8127 14.4826 10.7793 14.466 10.7453C14.4493 10.712 14.47 10.674 14.4826 10.6573L14.45 10.6407L14.4173 10.6367L14.3833 10.6427L14.3626 10.572L14.368 10.5613L14.3886 10.5653V10.54L14.3506 10.5293C14.3473 10.5193 14.3453 10.5087 14.3413 10.498L14.3346 10.3933L14.306 10.3727L14.314 10.3393L14.2813 10.3267L14.298 10.272L14.2693 10.2133H14.214C14.196 10.178 14.18 10.1413 14.16 10.1067C14.16 10.1007 14.162 10.0933 14.1826 10.0873C14.1931 10.0835 14.2041 10.0812 14.2153 10.0807L14.2113 10.0373L14.174 10.012L14.1613 9.962C14.1613 9.962 14.116 9.97067 14.12 9.99534C14.1206 10 14.1106 10.0007 14.1073 10.004C14.0813 9.962 14.0473 9.92534 14.0186 9.88467C14.0206 9.878 14.0213 9.87134 14.0246 9.86534C14.0413 9.836 14.0326 9.81934 14.004 9.81067C13.9753 9.802 13.9753 9.802 13.9666 9.76867C13.9586 9.73534 13.9253 9.72667 13.9253 9.72667L13.9126 9.67667L13.874 9.70067C13.8586 9.68267 13.8466 9.66267 13.8306 9.64534L13.8473 9.59267C13.83 9.58934 13.8253 9.578 13.8206 9.56734L13.9433 9.44734V9.44734ZM13.81 9.778L13.8066 9.78267C13.8066 9.82134 13.822 9.81934 13.8393 9.81534L13.874 9.86C13.8766 9.87734 13.8853 9.89 13.9013 9.89534C13.968 9.984 14.0286 10.0747 14.0813 10.1707C14.0766 10.176 14.0746 10.1807 14.0746 10.1807L14.0086 10.1893V10.256L13.9753 10.2687L13.9793 10.3107L14.0246 10.3067C14.0246 10.3067 14.0246 10.3567 14.0373 10.336C14.05 10.3153 14.1526 10.34 14.1446 10.3907C14.1413 10.4113 14.248 10.466 14.2353 10.5327C14.2466 10.5347 14.246 10.542 14.2526 10.5473C14.2726 10.6053 14.2886 10.6647 14.304 10.7247L14.3013 10.73L14.3073 10.7367C14.322 10.7933 14.3373 10.8493 14.3473 10.9073C14.3433 10.9493 14.334 10.9893 14.3133 11.002C14.264 11.0313 14.3173 11.0147 14.3173 11.0147L14.3093 11.1067C14.322 11.1487 14.342 11.1273 14.3546 11.1067C14.3586 11.1 14.3633 11.0967 14.3673 11.0927C14.3733 11.1533 14.3853 11.212 14.3866 11.2733H13.888L13.8966 11.262L13.9173 11.2033L13.9873 11.1827L13.9953 11.128L13.958 11.124C13.958 11.124 13.9993 11.0487 14.02 11.0487C14.0406 11.0487 14.1766 11.0487 14.1893 11.04C14.202 11.0313 14.2266 10.9647 14.2266 10.952C14.2266 10.9393 14.26 10.9353 14.272 10.9313C14.2846 10.9273 14.3133 10.894 14.3213 10.8767C14.3293 10.86 14.3006 10.7553 14.284 10.772C14.2673 10.7887 14.2306 10.7973 14.2306 10.7973L14.218 10.8433L14.1973 10.86C14.1973 10.86 14.2013 10.8727 14.1973 10.902C14.1933 10.9313 14.156 10.948 14.156 10.948L14.1393 10.9687C14.1393 10.9687 14.04 10.974 14.028 10.9687C13.9906 10.952 14.016 10.902 14.0406 10.906C14.0653 10.91 14.0366 10.8347 14.0366 10.8347L14.07 10.8307C14.07 10.8307 14.074 10.7553 14.0866 10.7553C14.0993 10.7553 14.0826 10.73 14.066 10.718C14.0493 10.7053 14.0286 10.6633 14.012 10.668C13.9953 10.672 13.9293 10.668 13.9293 10.668L13.9166 10.6933L13.8713 10.702C13.8713 10.702 13.8753 10.7347 13.8673 10.744C13.8426 10.7733 13.748 10.836 13.7886 10.7313L13.8006 10.706V10.668L13.7266 10.664C13.7266 10.664 13.6893 10.6513 13.6893 10.6347C13.6893 10.618 13.6853 10.5973 13.6853 10.5973L13.5986 10.5013L13.4953 10.4887L13.4873 10.468L13.4253 10.4593C13.4173 10.4553 13.412 10.46 13.404 10.4573C13.3766 10.4133 13.3406 10.3753 13.3086 10.3333L13.3013 10.304C13.298 10.2893 13.2546 10.234 13.23 10.2307C13.2186 10.218 13.2113 10.2033 13.1993 10.1913L13.7113 9.67934C13.7253 9.69334 13.73 9.702 13.7513 9.71734C13.7546 9.71934 13.7566 9.71734 13.76 9.71867C13.7793 9.736 13.7933 9.758 13.81 9.778V9.778ZM14.1833 12.2867C14.0714 12.5391 13.9164 12.7701 13.7253 12.9693C13.7173 12.8847 13.6993 12.792 13.6993 12.792L13.666 12.7753L13.674 12.6747H13.6286L13.5546 12.7713L13.5466 12.798L13.5046 12.756L13.526 12.734L13.522 12.684L13.5506 12.6587V12.6167L13.5753 12.608L13.5793 12.516L13.6 12.512V12.3113L13.538 12.2527C13.534 12.2733 13.468 12.2733 13.468 12.2733C13.468 12.2733 13.4513 12.3027 13.4393 12.3027C13.4273 12.3027 13.456 12.3407 13.4473 12.3653C13.4393 12.3907 13.406 12.3907 13.406 12.3907L13.344 12.4073L13.3273 12.428H13.2613L13.2546 12.384L13.2653 12.3707L13.3273 12.3533L13.3686 12.3327L13.3893 12.2907C13.3933 12.2487 13.4426 12.2533 13.4426 12.2533C13.4426 12.2533 13.5373 12.174 13.5413 12.136C13.5453 12.098 13.5786 11.9933 13.636 11.9933H13.7433C13.7846 11.9767 13.772 11.922 13.772 11.922L13.8253 11.9133L13.8333 11.9427C13.8333 11.9427 13.9073 11.9513 13.916 11.9387C13.924 11.926 13.9406 11.8967 13.9613 11.9093C13.982 11.922 14.048 11.88 14.048 11.88C14.052 11.8507 14.1553 11.8633 14.1553 11.8633L14.168 11.826C14.168 11.826 14.098 11.73 14.0853 11.73C14.0726 11.73 14.0066 11.6713 13.9986 11.692C13.9326 11.6753 13.9366 11.5833 13.9366 11.5833L13.912 11.5247C13.912 11.4913 13.85 11.42 13.838 11.4287C13.812 11.4093 13.8073 11.3893 13.8086 11.3713H14.3853C14.3805 11.687 14.3117 11.9983 14.1833 12.2867V12.2867ZM12.3173 12.1727L12.338 12.1813L12.3006 12.2107L12.268 12.2487L12.2266 12.236L12.1773 12.232L12.1606 12.2027L12.132 12.1987L12.128 12.2573L12.1073 12.2827L12.058 12.3333C12.11 12.3333 12.0753 12.3613 12.05 12.3733V12.206C12.1006 12.2033 12.146 12.184 12.1946 12.1733L12.2146 12.1907H12.252L12.2553 12.1593C12.276 12.1533 12.298 12.1527 12.318 12.1453C12.314 12.1567 12.3173 12.1727 12.3173 12.1727V12.1727ZM13.0593 10.3313C13.0646 10.332 13.0713 10.3353 13.0766 10.3353C13.1013 10.3353 13.1553 10.3267 13.1553 10.3267L13.1906 10.3347C13.2106 10.3587 13.2293 10.384 13.2473 10.4087L13.2046 10.402L13.172 10.398L13.11 10.394C13.048 10.436 13.036 10.486 13.036 10.486C13.006 10.5427 12.9426 10.4773 12.952 10.4393L13.0593 10.3313ZM12.924 12.6793L13.0313 12.734C13.044 12.7507 13.0973 12.7467 13.0973 12.7467L13.114 12.7673C13.114 12.7673 13.1473 12.7633 13.168 12.788C13.1886 12.8133 13.296 12.792 13.296 12.792L13.3246 12.8173L13.37 12.834L13.4466 12.8367L13.4933 12.8833C13.4178 12.9091 13.3366 12.9137 13.2586 12.8967C13.246 12.884 13.16 12.8467 13.16 12.8467C13.16 12.8467 13.094 12.792 13.0813 12.8093C13.0686 12.8267 13.0113 12.7887 13.0113 12.8007C13.0113 12.8127 12.958 12.7713 12.958 12.7713L12.8753 12.742L12.9373 12.7293L12.924 12.6793V12.6793ZM12.9366 12.188C12.9386 12.1833 12.9426 12.1793 12.936 12.1727C12.9313 12.1673 12.9226 12.168 12.916 12.1673L12.882 12.1333C12.88 12.1073 12.8853 12.072 12.8826 12.0593C12.8786 12.0427 12.9526 12.0173 12.9406 12.0553C12.928 12.0933 12.9406 12.11 12.9406 12.11C12.994 12.06 13.0393 12.114 13.0353 12.1267C13.0313 12.1393 13.064 12.152 13.0846 12.1393C13.1053 12.1267 13.13 12.1773 13.122 12.202C13.114 12.2273 13.0393 12.2227 13.0353 12.198C13.0313 12.1727 13.0186 12.1813 13.0106 12.194C13.0033 12.2053 12.9726 12.2113 12.952 12.2033L12.9366 12.188V12.188ZM13.2913 10.6027C13.25 10.6027 13.242 10.5693 13.242 10.5693C13.242 10.5693 13.2093 10.5567 13.2093 10.5733C13.2093 10.59 13.1966 10.6233 13.2093 10.64C13.2213 10.6567 13.1926 10.682 13.1806 10.6693C13.1686 10.6567 13.1353 10.6193 13.1433 10.6067C13.1513 10.594 13.0853 10.5147 13.1513 10.502C13.2173 10.4893 13.1473 10.452 13.172 10.4433L13.2046 10.4267H13.2373L13.252 10.4147C13.2706 10.4407 13.2933 10.464 13.3106 10.4907C13.3086 10.5 13.2973 10.5033 13.2993 10.5147C13.312 10.578 13.332 10.6027 13.2913 10.6027V10.6027ZM12.31 12.0433C12.2866 12.0533 12.2593 12.0527 12.2346 12.0607V11.9807L12.276 11.9347C12.32 11.9193 12.3126 12.012 12.31 12.0433ZM12.05 13.6153C12.0713 13.592 12.152 13.5893 12.19 13.6173C12.2353 13.6507 12.2973 13.63 12.2973 13.63L12.332 13.672C12.238 13.6853 12.1473 13.7073 12.05 13.7093V13.6153V13.6153ZM12.6006 9.88934C12.7693 9.96 12.926 10.0613 13.0626 10.19L13.034 10.2187C13.0226 10.2047 12.978 10.196 12.978 10.1807C12.978 10.164 12.9366 10.1427 12.9406 10.168C12.9446 10.1933 12.912 10.206 12.9033 10.1973C12.8953 10.1887 12.8706 10.2227 12.8706 10.2227C12.8706 10.2353 12.8626 10.252 12.8873 10.256C12.912 10.26 12.9573 10.2393 12.9613 10.2647C12.9626 10.2733 12.9646 10.28 12.9666 10.2867L12.8046 10.4487C12.7813 10.45 12.7593 10.4493 12.7593 10.4493C12.7466 10.4873 12.6893 10.4453 12.706 10.42C12.7226 10.3947 12.7226 10.378 12.7226 10.378L12.702 10.374L12.6773 10.42C12.6193 10.42 12.6033 10.4533 12.6153 10.4747C12.628 10.4953 12.5986 10.4707 12.5906 10.5C12.5826 10.5293 12.5946 10.5293 12.6193 10.542C12.644 10.5547 12.6066 10.5547 12.6233 10.5753C12.6353 10.5907 12.6553 10.5887 12.6593 10.5947L12.6433 10.6107C12.6133 10.6253 12.5733 10.6213 12.5733 10.6213C12.572 10.6327 12.558 10.6333 12.5473 10.6373C12.5065 10.6059 12.4627 10.5784 12.4166 10.5553L12.4126 10.55H12.408C12.3873 10.5387 12.3693 10.5213 12.348 10.512C12.3606 10.5033 12.378 10.498 12.3873 10.4707C12.3994 10.4311 12.4076 10.3905 12.412 10.3493C12.412 10.3493 12.346 10.3453 12.342 10.366C12.338 10.3867 12.2966 10.3993 12.2966 10.3993C12.2966 10.3993 12.2633 10.412 12.276 10.4287C12.2886 10.4453 12.2513 10.454 12.2513 10.454C12.2513 10.454 12.2546 10.4733 12.2486 10.486C12.1833 10.4667 12.1186 10.4447 12.0493 10.4407V9.772C12.2413 9.776 12.4273 9.81667 12.6006 9.88934V9.88934ZM12.0906 12.6L12.1853 12.5793C12.1933 12.5373 12.2346 12.588 12.2346 12.588C12.276 12.584 12.284 12.6133 12.284 12.6133L12.338 12.622C12.3833 12.6347 12.356 12.6393 12.3586 12.6553C12.3626 12.6807 12.3833 12.672 12.3833 12.672L12.3913 12.6173L12.416 12.6213L12.3913 12.592L12.346 12.5713L12.2966 12.5507C12.264 12.5047 12.3046 12.5127 12.338 12.5173H12.3913C12.3913 12.5173 12.4533 12.6007 12.4533 12.622C12.4533 12.6427 12.482 12.6473 12.482 12.6473L12.5193 12.6433L12.532 12.6727H12.5693L12.582 12.698H12.656L12.66 12.66L12.59 12.6473L12.586 12.6053L12.5366 12.5927C12.52 12.5213 12.5486 12.5007 12.5693 12.534L12.594 12.538L12.586 12.4753L12.6146 12.4667L12.6066 12.3787L12.582 12.3707V12.34L12.6853 12.344C12.6773 12.2893 12.6893 12.2647 12.6893 12.2647H12.718L12.722 12.2853L12.848 12.2973L12.854 12.298C12.9033 12.3273 12.8786 12.3653 12.862 12.3733C12.8453 12.382 12.8166 12.382 12.8166 12.382L12.8086 12.3987L12.7013 12.4067L12.6933 12.4487C12.64 12.44 12.6193 12.4987 12.6313 12.528C12.644 12.5573 12.6313 12.5827 12.6313 12.5827L12.6766 12.6033L12.7346 12.5867C12.7426 12.5447 12.78 12.536 12.8133 12.5113C12.8433 12.4887 12.884 12.5433 12.88 12.5793C12.8133 12.626 12.7533 12.6813 12.68 12.7173C12.5706 12.7707 12.4526 12.8073 12.3306 12.834H12.33L12.2846 12.8213L12.2806 12.7587C12.2726 12.7167 12.194 12.7167 12.198 12.746C12.202 12.7753 12.0506 12.7587 12.05 12.7587V12.6433L12.0906 12.6V12.6ZM12.0493 13.808C12.164 13.806 12.2733 13.7813 12.3846 13.764L12.3993 13.7967L12.4693 13.8173L12.5186 13.83L12.5353 13.9013L12.5726 13.9053L12.5853 13.9513C12.6306 13.9847 12.5726 14.056 12.5726 14.056V14.148L12.606 14.1647L12.602 14.198L12.656 14.252L12.718 14.256L12.8186 14.3633C12.5726 14.43 12.316 14.4693 12.05 14.474V13.808H12.0493ZM13.6953 13.9713V13.94C13.7693 13.8853 13.774 13.7893 13.7033 13.7807C13.65 13.774 13.6746 13.718 13.724 13.7093L13.7526 13.6967V13.6587L13.8473 13.5707V13.5033L13.6413 13.3313C13.596 13.3147 13.596 13.2567 13.6146 13.2027C13.65 13.172 13.6886 13.146 13.7233 13.1133L14.0133 13.4033C14.002 13.4253 13.992 13.4467 13.9966 13.4607L14.034 13.4773L14.038 13.5487C14.066 13.5773 14.1273 13.5753 14.1773 13.5667L14.1946 13.584C14.0433 13.7327 13.8733 13.8573 13.6953 13.9713V13.9713ZM14.264 13.5153L14.246 13.4973L14.24 13.3913L14.2193 13.3707L14.2153 13.266C14.232 13.2113 14.1366 13.132 14.1286 13.1487C14.1206 13.1653 14.0666 13.1527 14.0666 13.1693C14.0666 13.186 14.034 13.27 14.05 13.2993V13.302L13.7926 13.0447C14.2266 12.5941 14.4742 11.9961 14.486 11.3707H15.1533C15.147 11.8151 15.0461 12.253 14.8573 12.6553C14.7084 12.9728 14.5079 13.2634 14.264 13.5153V13.5153ZM15.592 13.056C15.4041 13.4433 15.1551 13.7978 14.8546 14.106L14.3346 13.586C14.9132 12.9923 15.2416 12.199 15.252 11.37H15.9893C15.9829 11.9544 15.8472 12.5302 15.592 13.056V13.056ZM15.7013 9.82667C15.8846 10.2807 15.984 10.7687 15.99 11.272H15.2526C15.2472 10.8768 15.1695 10.4859 15.0233 10.1187C15.004 10.0707 14.974 10.0287 14.9526 9.98134C14.9573 9.95867 14.9666 9.914 15.0033 9.92533C15.0446 9.938 15.016 9.83334 15.016 9.83334C15.016 9.83334 14.958 9.79134 14.962 9.77067C14.966 9.75 14.904 9.708 14.9086 9.69134C14.9126 9.67467 14.8553 9.64134 14.8593 9.62467C14.8633 9.608 14.8306 9.562 14.8306 9.562L14.7686 9.50334L14.7606 9.46534L14.7113 9.46134L14.6126 9.34L14.6166 9.30667L14.588 9.30267V9.25667L14.5593 9.24L14.514 9.236L14.4213 9.13334L14.4133 9.08734H14.368L14.3746 9.016L14.8566 8.534C15.2196 8.90583 15.5065 9.34493 15.7013 9.82667V9.82667ZM12.0493 8.06934V7.332C12.5438 7.33765 13.033 7.43508 13.492 7.61934V7.61867C13.9747 7.81338 14.4145 8.10079 14.7866 8.46467L14.3473 8.904C14.3313 8.908 14.314 8.91267 14.302 8.90734C14.2733 8.89467 14.314 8.86534 14.314 8.86534V8.832L14.2893 8.80667C14.2893 8.80667 14.2193 8.81534 14.2153 8.80267C14.2113 8.79 14.1986 8.73534 14.1986 8.73534L14.1946 8.664L14.166 8.65134L14.162 8.626L14.1166 8.63V8.58L14.092 8.57134L14.0666 8.56L14.0626 8.51L13.972 8.506L13.9433 8.464L13.9106 8.414L13.8073 8.40534L13.7826 8.38L13.7413 8.37134L13.7126 8.35867L13.7 8.37934L13.6213 8.38334L13.6173 8.40867C13.5873 8.424 13.4946 8.41933 13.4426 8.42067C13.3686 8.384 13.2993 8.33667 13.2226 8.306L13.1866 8.398C13.254 8.42534 13.3153 8.46733 13.3806 8.49933C13.3773 8.50467 13.3753 8.514 13.37 8.514C13.3493 8.514 13.3573 8.56867 13.3573 8.56867C13.3573 8.56867 13.4113 8.56867 13.4273 8.57267C13.444 8.57667 13.444 8.61867 13.444 8.61867C13.506 8.61467 13.5306 8.698 13.5226 8.71934C13.5146 8.74 13.5473 8.74 13.5473 8.74C13.5473 8.74 13.5473 8.80667 13.5393 8.824C13.5313 8.84067 13.5933 8.85334 13.6093 8.87867C13.626 8.904 13.6013 8.98734 13.5886 8.992C13.576 8.996 13.6213 9.00867 13.6173 9.03C13.6133 9.05067 13.63 9.03 13.634 9.06334L13.6466 9.168L13.7046 9.172C13.7126 9.11734 13.8193 9.11534 13.8366 9.122C13.9066 9.14734 13.9606 9.256 13.9606 9.28134C13.9606 9.30667 13.9153 9.31067 13.9153 9.31067L13.9173 9.338L13.77 9.48534C13.7566 9.47734 13.742 9.46934 13.734 9.474C13.7133 9.48667 13.7213 9.386 13.7213 9.386C13.7213 9.386 13.7586 9.36067 13.7753 9.37334C13.792 9.386 13.6353 9.164 13.602 9.18467C13.5693 9.20534 13.4946 9.164 13.4986 9.126C13.5026 9.08867 13.35 8.96267 13.35 8.96267C13.35 8.96267 13.3006 8.92934 13.292 8.95467C13.284 8.98 13.2673 8.99667 13.292 9.00934C13.3166 9.022 13.3126 8.98867 13.3413 9.018C13.37 9.04734 13.424 9.08467 13.4033 9.11C13.3914 9.1249 13.3758 9.1364 13.358 9.14334L13.3866 9.17667H13.432L13.44 9.248C13.44 9.248 13.4893 9.27334 13.502 9.30267C13.512 9.32667 13.5086 9.34 13.502 9.35467C13.4112 9.28471 13.3156 9.22122 13.216 9.16467C13.218 9.154 13.2233 9.14334 13.2213 9.13534C13.2133 9.106 13.2546 9.09334 13.2746 9.12667L13.316 9.12267L13.324 9.08467L13.2666 9.03734H13.2213C13.2213 9.03734 13.2173 9.07067 13.1886 9.058C13.16 9.04534 13.176 9.04934 13.1513 9.04534C13.1266 9.04134 13.1346 9.1 13.1386 9.11667L13.1373 9.12134C13.072 9.08734 13.01 9.04667 12.942 9.01934C12.6583 8.90338 12.3557 8.84099 12.0493 8.83534V8.464C12.0726 8.46334 12.088 8.45734 12.0906 8.44667C12.0946 8.43 12.0986 8.426 12.1233 8.42134C12.148 8.41734 12.1193 8.36667 12.0946 8.37134C12.0733 8.37467 12.0573 8.362 12.0493 8.34667V8.168C12.4392 8.17358 12.8246 8.25157 13.186 8.398L13.222 8.306C12.8492 8.15499 12.4515 8.07473 12.0493 8.06934V8.06934ZM11.272 10.6627L11.2326 10.6613C11.216 10.6993 11.1746 10.6573 11.1746 10.6573C11.1666 10.632 11.1086 10.6573 11.1086 10.6573C11.1086 10.7033 11.03 10.6367 11.03 10.6367L10.8853 10.532C10.8026 10.4567 10.6793 10.5527 10.6753 10.574C10.6773 10.6033 10.654 10.606 10.63 10.602C10.6946 10.4793 10.77 10.3627 10.8673 10.2593L11.272 10.6627ZM10.7986 10.19C10.6916 10.3066 10.6018 10.4379 10.532 10.58C10.5126 10.5793 10.4913 10.58 10.486 10.5947C10.474 10.628 10.42 10.62 10.42 10.62L10.412 10.6367L10.3706 10.6453L10.3626 10.6707L10.3133 10.6793L10.4373 10.6753C10.4706 10.6713 10.4246 10.7467 10.4046 10.742L10.3466 10.746L10.326 10.7667H10.2726L10.2466 10.8L10.1686 10.796C10.1686 10.796 10.1233 10.834 10.1273 10.846C10.1313 10.8587 10.1193 10.896 10.1066 10.896C10.094 10.896 10.0693 10.934 10.078 10.946C10.086 10.9587 10.0533 11.0007 10.0533 11.0007L10.0453 11.0427L10.0206 11.0513V11.1647L9.97131 11.198V11.248L9.94865 11.2727H9.61331C9.62498 10.6734 9.86234 10.1006 10.278 9.66867L10.7986 10.19V10.19ZM10.208 9.59934C9.77424 10.0496 9.52639 10.6469 9.51398 11.272H8.84598C8.85603 10.4694 9.17419 9.7013 9.73465 9.12667L10.208 9.59934ZM9.14398 8.53467L9.66665 9.05734C9.42213 9.30908 9.21976 9.59856 9.06731 9.91467C8.86299 10.3384 8.75398 10.8017 8.74798 11.272H8.01065C8.02126 10.2475 8.42731 9.2668 9.14398 8.53467V8.53467Z" fill="white"/>
<path d="M8.73736 13.282L8.78269 13.324L8.79936 13.2947L8.77002 13.232L8.74136 13.2107L8.72069 13.152L8.65869 13.1233L8.68802 13.1987L8.70402 13.236L8.73736 13.282ZM10.1727 11.7873C10.1767 11.8333 10.21 11.758 10.21 11.758V11.4733L10.136 11.4647L10.14 11.494H10.1607C10.1934 11.5527 10.1647 11.6947 10.1647 11.6947C10.1647 11.6947 10.1154 11.6987 10.1067 11.674C10.0987 11.6487 10.078 11.7287 10.094 11.7413C10.1107 11.754 10.1687 11.7413 10.1727 11.7873V11.7873Z" fill="white"/>
<path d="M10.1353 11.8127V11.9133L10.2013 12.0013L10.2259 11.9427L10.2346 11.9047L10.2053 11.892L10.2099 11.8293L10.2346 11.8253L10.2386 11.796L10.1766 11.838L10.1353 11.8127ZM11.4386 11.6287L11.4473 11.5867L11.4719 11.574L11.4759 11.532L11.4926 11.5027L11.5173 11.4733L11.5259 11.44L11.5666 11.4153L11.6166 11.4067L11.6373 11.3813L11.6453 11.3313L11.6486 11.294L11.6659 11.2687L11.7153 11.2473V11.168H11.6906L11.6866 11.1387L11.6413 11.1347L11.6326 11.1553H11.6126L11.6079 11.1887H11.6326L11.6373 11.214L11.6206 11.2307L11.6126 11.252L11.5793 11.26L11.5053 11.3313L11.5006 11.3647L11.4806 11.394L11.4559 11.4567L11.3686 11.4607L11.3526 11.5367L11.3646 11.5993L11.4386 11.6287ZM11.7646 11.9007L11.7273 11.9047L11.7313 11.9633L11.7559 11.984L11.8013 11.9967C11.8013 11.9967 11.8633 11.98 11.8673 11.93L11.7726 11.926L11.7646 11.9007V11.9007ZM12.0906 11.662C12.0993 11.6987 12.0986 11.6033 12.1153 11.6073C12.1319 11.6113 12.1193 11.5487 12.1193 11.5487L12.0453 11.6027C12.0826 11.608 12.0866 11.6453 12.0906 11.662V11.662ZM12.3833 11.578C12.3213 11.536 12.3253 11.482 12.3093 11.444C12.3019 11.428 12.2846 11.4147 12.2719 11.448V11.5027C12.2719 11.5027 12.3299 11.5947 12.3499 11.6073C12.3713 11.62 12.4046 11.5927 12.3833 11.578ZM14.2399 11.704C14.2233 11.654 14.1233 11.6967 14.1413 11.7207C14.1659 11.754 14.2073 11.7373 14.2239 11.7413C14.2399 11.746 14.2566 11.754 14.2399 11.704V11.704ZM14.3719 10.31C14.3719 10.3227 14.3806 10.3853 14.3806 10.3853C14.3806 10.3853 14.4093 10.398 14.4133 10.4147C14.4173 10.4313 14.4133 10.4647 14.4259 10.4693C14.4379 10.4733 14.4633 10.49 14.4546 10.5067C14.4466 10.5233 14.4466 10.5567 14.4466 10.5567L14.4633 10.5947L14.4959 10.6153C14.4959 10.6153 14.5086 10.5147 14.4879 10.5107C14.4673 10.5067 14.4759 10.448 14.4759 10.448C14.4759 10.448 14.4966 10.3687 14.4633 10.3687C14.4299 10.3687 14.4553 10.3267 14.4346 10.314C14.4139 10.3013 14.4266 10.2427 14.4179 10.226C14.4099 10.2093 14.4099 10.188 14.3893 10.176C14.3686 10.1633 14.3933 10.222 14.3813 10.2307C14.3686 10.2393 14.3606 10.256 14.3479 10.2687C14.3346 10.2807 14.3719 10.2973 14.3719 10.31V10.31ZM14.1946 9.91601C14.2066 9.93268 14.2319 9.94534 14.2319 9.96201C14.2319 9.97868 14.2239 9.99135 14.2486 9.99535C14.2733 9.99935 14.2899 9.99134 14.2979 10.012C14.3051 10.0351 14.3065 10.0596 14.3019 10.0833C14.2979 10.1 14.3059 10.1253 14.3266 10.1253C14.3473 10.1253 14.3513 10.1293 14.3513 10.142C14.3513 10.1547 14.3759 10.096 14.3759 10.096C14.3601 10.0803 14.3475 10.0618 14.3386 10.0413C14.3386 10.0413 14.3179 9.98268 14.3179 9.97468C14.3179 9.96601 14.2893 9.95801 14.2766 9.95401C14.2639 9.95001 14.2433 9.91201 14.2433 9.91201L14.1946 9.91601V9.91601ZM14.1493 9.82401C14.1659 9.82401 14.1779 9.83268 14.1946 9.84068C14.2112 9.84981 14.2254 9.86285 14.2359 9.87868L14.2773 9.86601C14.2773 9.86601 14.2813 9.82401 14.2646 9.83668C14.2479 9.84935 14.2359 9.80735 14.2193 9.81135C14.2026 9.81535 14.1946 9.79468 14.1779 9.77401C14.1613 9.75335 14.1653 9.74868 14.1446 9.73601C14.1239 9.72335 14.1113 9.72334 14.1113 9.74001C14.1113 9.75668 14.1319 9.76534 14.1239 9.78601C14.1222 9.79018 14.1214 9.79472 14.1219 9.79923C14.1223 9.80374 14.1238 9.80807 14.1263 9.81184C14.1289 9.81561 14.1323 9.81869 14.1363 9.82082C14.1403 9.82294 14.1447 9.82404 14.1493 9.82401V9.82401ZM13.6786 10.1133C13.6786 10.1133 13.6913 10.134 13.7033 10.1467C13.7159 10.1593 13.7446 10.1847 13.7159 10.2013C13.6873 10.218 13.7199 10.214 13.7199 10.214C13.7199 10.214 13.7159 10.302 13.6786 10.2893C13.6413 10.2767 13.6293 10.3353 13.6293 10.352C13.6293 10.3687 13.7759 10.3753 13.7533 10.352C13.7406 10.3393 13.7699 10.31 13.7699 10.31C13.7699 10.31 13.8693 10.3187 13.8899 10.3187C13.9106 10.3187 13.9273 10.3147 13.9146 10.2933C13.9019 10.2727 13.8653 10.2767 13.8653 10.2767C13.8653 10.2767 13.8159 10.2893 13.7706 10.264C13.7253 10.2387 13.7786 10.2307 13.7873 10.2307C13.7959 10.2307 13.8326 10.2013 13.8159 10.1807C13.7993 10.16 13.8159 10.122 13.8159 10.1387C13.8159 10.1553 13.8613 10.164 13.8699 10.1513C13.8779 10.1387 13.8699 10.1013 13.8493 10.0887C13.8286 10.076 13.8866 10.068 13.8699 10.0467C13.8519 10.0253 13.8439 10 13.8439 10C13.8439 10 13.8193 10.0333 13.7699 10.0167C13.7699 10.0167 13.7619 10.096 13.7373 10.1127H13.6786V10.1133ZM14.2153 10.0813V10.084C14.2153 10.084 14.2179 10.082 14.2153 10.0813ZM12.7259 10.3307C12.7259 10.3433 12.7546 10.356 12.7713 10.356C12.7879 10.356 12.8333 10.3227 12.8333 10.3227C12.8333 10.3227 12.8539 10.264 12.8373 10.268C12.8206 10.272 12.7879 10.2973 12.7839 10.272C12.7799 10.2467 12.7306 10.2593 12.7306 10.2593L12.6646 10.268L12.6606 10.2973L12.7059 10.3013C12.7053 10.3013 12.7259 10.3187 12.7259 10.3307V10.3307ZM13.0806 8.93668C13.0599 8.93668 13.0226 8.91134 13.0313 8.89468C13.0393 8.87801 12.9613 8.86134 12.9613 8.86134C12.9613 8.86134 12.8913 8.79401 12.9159 8.80268C12.9406 8.81135 12.9286 8.77334 12.9286 8.77334C12.9286 8.77334 12.8793 8.78201 12.8666 8.77735C12.8539 8.77335 12.8586 8.73534 12.8586 8.73534C12.8586 8.73534 12.8093 8.72268 12.8093 8.73534C12.8093 8.74801 12.8259 8.74801 12.8339 8.77268C12.8419 8.79801 12.8379 8.84001 12.8753 8.84801C12.9126 8.85668 12.9206 8.86468 12.9246 8.88134C12.9286 8.89801 12.9739 8.90201 12.9739 8.90201L13.0073 8.91868L13.1059 9.00268V8.96935C13.1053 8.97001 13.1013 8.93668 13.0806 8.93668V8.93668ZM12.6473 8.40068C12.6486 8.40201 12.6513 8.39734 12.6526 8.39734C12.6386 8.39068 12.6299 8.38734 12.6473 8.40068ZM12.7753 8.40068L12.7466 8.38001C12.7466 8.38001 12.7013 8.37601 12.7013 8.36335C12.7013 8.35201 12.6713 8.39935 12.6533 8.39801C12.6733 8.40801 12.7053 8.42601 12.7053 8.42601C12.7379 8.42601 12.7586 8.45135 12.7586 8.46401C12.7586 8.47668 12.8039 8.47268 12.8039 8.47268L12.8079 8.44334L12.7753 8.40068V8.40068ZM13.9553 8.38868C13.9553 8.38868 14.0326 8.48001 14.0293 8.43468C14.0213 8.30935 13.9633 8.30468 13.9426 8.28001C13.9219 8.25468 13.8333 8.28468 13.8393 8.31801C13.8433 8.33868 13.8599 8.36001 13.8926 8.36801L13.9553 8.38868V8.38868ZM12.3626 7.90268V7.85668L12.3466 7.84001L12.3299 7.78134L12.2766 7.76468L12.2233 7.78535L12.1653 7.82334L12.1033 7.83201L12.0699 7.86934L12.2019 7.88201L12.2266 7.92401L12.3213 7.93268L12.3833 7.99534C12.4373 8.01201 12.4493 7.98668 12.4166 7.95801L12.3626 7.90268V7.90268ZM12.7426 7.69734H12.6686C12.6646 7.66801 12.5986 7.68068 12.5946 7.69734C12.5906 7.71401 12.5659 7.71801 12.5659 7.71801L12.4713 7.72668C12.4633 7.75201 12.4133 7.76868 12.4093 7.75201C12.3999 7.71535 12.3473 7.79801 12.4013 7.81468C12.4546 7.83135 12.5086 7.81468 12.5086 7.81468L12.5213 7.78934L12.7273 7.79334C12.7439 7.77668 12.7519 7.75134 12.7519 7.75134C12.7519 7.75134 12.8013 7.73468 12.8219 7.74268C12.8426 7.75135 12.8259 7.68401 12.8053 7.69268C12.7839 7.70134 12.7426 7.69734 12.7426 7.69734ZM11.6286 8.56801C11.6326 8.58068 11.6739 8.58468 11.6779 8.57201C11.6819 8.55934 11.6986 8.53401 11.6613 8.53401C11.6239 8.53401 11.6326 8.51335 11.6199 8.50068C11.6073 8.48801 11.5219 8.49001 11.5253 8.50468C11.5293 8.52534 11.5626 8.55068 11.5626 8.55068C11.5626 8.55068 11.6246 8.55601 11.6286 8.56801V8.56801ZM11.8233 12.3427C11.8419 12.3393 11.8539 12.33 11.8693 12.3267C11.8846 12.3233 11.8913 12.2987 11.8973 12.2733C11.9033 12.248 11.8913 12.2353 11.8913 12.2353C11.8913 12.2353 11.8759 12.2607 11.8513 12.2353C11.8266 12.21 11.8046 12.292 11.7953 12.3107C11.7959 12.3113 11.8053 12.3453 11.8233 12.3427V12.3427Z" fill="white"/>
</g>
<defs>
<clipPath id="clip0_511_658">
<rect width="24" height="24" fill="white"/>
</clipPath>
</defs>
</svg>
