<svg id="e5Oo2NKnk791" xmlns="http://www.w3.org/2000/svg" xmlns:xlink="http://www.w3.org/1999/xlink" viewBox="0 0 64 64" shape-rendering="geometricPrecision" text-rendering="geometricPrecision"><style><![CDATA[#e5Oo2NKnk792_tr {animation: e5Oo2NKnk792_tr__tr 4500ms linear infinite normal forwards}@keyframes e5Oo2NKnk792_tr__tr { 0% {transform: translate(35.127672px,9.046257px) rotate(0deg)} 46.666667% {transform: translate(35.127672px,9.046257px) rotate(0deg)} 51.111111% {transform: translate(35.127672px,9.046257px) rotate(15deg)} 80% {transform: translate(35.127672px,9.046257px) rotate(15deg)} 100% {transform: translate(35.127672px,9.046257px) rotate(15deg)}} #e5Oo2NKnk792 {animation: e5Oo2NKnk792_c_o 4500ms linear infinite normal forwards}@keyframes e5Oo2NKnk792_c_o { 0% {opacity: 0} 13.333333% {opacity: 0} 17.777778% {opacity: 1} 80% {opacity: 1} 88.888889% {opacity: 0} 100% {opacity: 0}} #e5Oo2NKnk793_tr {animation: e5Oo2NKnk793_tr__tr 4500ms linear infinite normal forwards}@keyframes e5Oo2NKnk793_tr__tr { 0% {transform: translate(43.412671px,13.761257px) rotate(0deg)} 53.333333% {transform: translate(43.412671px,13.761257px) rotate(0deg)} 57.777778% {transform: translate(43.412671px,13.761257px) rotate(15deg)} 80% {transform: translate(43.412671px,13.761257px) rotate(15deg)} 100% {transform: translate(43.412671px,13.761257px) rotate(15deg)}} #e5Oo2NKnk793 {animation: e5Oo2NKnk793_c_o 4500ms linear infinite normal forwards}@keyframes e5Oo2NKnk793_c_o { 0% {opacity: 0} 20% {opacity: 0} 24.444444% {opacity: 1} 80% {opacity: 1} 88.888889% {opacity: 0} 100% {opacity: 0}} #e5Oo2NKnk794_tr {animation: e5Oo2NKnk794_tr__tr 4500ms linear infinite normal forwards}@keyframes e5Oo2NKnk794_tr__tr { 0% {transform: translate(50.407673px,22.326257px) rotate(0deg)} 60% {transform: translate(50.407673px,22.326257px) rotate(0deg)} 64.444444% {transform: translate(50.407673px,22.326257px) rotate(15deg)} 80% {transform: translate(50.407673px,22.326257px) rotate(15deg)} 100% {transform: translate(50.407673px,22.326257px) rotate(15deg)}} #e5Oo2NKnk794 {animation: e5Oo2NKnk794_c_o 4500ms linear infinite normal forwards}@keyframes e5Oo2NKnk794_c_o { 0% {opacity: 0} 26.666667% {opacity: 0} 31.111111% {opacity: 1} 80% {opacity: 1} 88.888889% {opacity: 0} 100% {opacity: 0}} #e5Oo2NKnk795_tr {animation: e5Oo2NKnk795_tr__tr 4500ms linear infinite normal forwards}@keyframes e5Oo2NKnk795_tr__tr { 0% {transform: translate(53.592673px,31.638139px) rotate(0deg)} 66.666667% {transform: translate(53.592673px,31.638139px) rotate(0deg)} 71.111111% {transform: translate(53.592673px,31.638139px) rotate(15deg)} 80% {transform: translate(53.592673px,31.638139px) rotate(15deg)} 100% {transform: translate(53.592673px,31.638139px) rotate(15deg)}} #e5Oo2NKnk795 {animation: e5Oo2NKnk795_c_o 4500ms linear infinite normal forwards}@keyframes e5Oo2NKnk795_c_o { 0% {opacity: 0} 33.333333% {opacity: 0} 37.777778% {opacity: 1} 80% {opacity: 1} 88.888889% {opacity: 0} 100% {opacity: 0}} #e5Oo2NKnk796_tr {animation: e5Oo2NKnk796_tr__tr 4500ms linear infinite normal forwards}@keyframes e5Oo2NKnk796_tr__tr { 0% {transform: translate(53.292673px,40.793136px) rotate(0deg)} 73.333333% {transform: translate(53.292673px,40.793136px) rotate(0deg)} 77.777778% {transform: translate(53.292673px,40.793136px) rotate(15deg)} 80% {transform: translate(53.292673px,40.793136px) rotate(15deg)} 100% {transform: translate(53.292673px,40.793136px) rotate(15deg)}} #e5Oo2NKnk796 {animation: e5Oo2NKnk796_c_o 4500ms linear infinite normal forwards}@keyframes e5Oo2NKnk796_c_o { 0% {opacity: 0} 40% {opacity: 0} 44.444444% {opacity: 1} 80% {opacity: 1} 88.888889% {opacity: 0} 100% {opacity: 0}} #e5Oo2NKnk797 {animation: e5Oo2NKnk797_c_o 4500ms linear infinite normal forwards}@keyframes e5Oo2NKnk797_c_o { 0% {opacity: 0;animation-timing-function: cubic-bezier(0.42,0,1,1)} 4.444444% {opacity: 1} 80% {opacity: 1} 88.888889% {opacity: 0} 100% {opacity: 0}} #e5Oo2NKnk798 {animation: e5Oo2NKnk798_c_o 4500ms linear infinite normal forwards}@keyframes e5Oo2NKnk798_c_o { 0% {opacity: 0} 6.666667% {opacity: 0} 11.111111% {opacity: 1} 80% {opacity: 1} 88.888889% {opacity: 0} 100% {opacity: 0}}]]></style><g id="e5Oo2NKnk792_tr" transform="translate(35.127672,9.046257) rotate(0)"><polygon id="e5Oo2NKnk792" points="22.94,6.7 25.02,1.94 30.01,1.08 36.35,0 27.73,5.21 22.94,6.7" transform="translate(-29.645,-3.35)" opacity="0" fill="#231f20"/></g><g id="e5Oo2NKnk793_tr" transform="translate(43.412671,13.761257) rotate(0)"><polygon id="e5Oo2NKnk793" points="30.97,9.13 35.27,5.51 44.89,7.08 34.01,10.62 30.97,9.13" transform="translate(-37.929999,-8.065)" opacity="0" fill="#231f20"/></g><g id="e5Oo2NKnk794_tr" transform="translate(50.407673,22.326257) rotate(0)"><polygon id="e5Oo2NKnk794" points="37.72,15.12 43.02,13.54 52.13,19.72 42.21,17.95 37.72,15.12" transform="translate(-44.925001,-16.63)" opacity="0" fill="#231f20"/></g><g id="e5Oo2NKnk795_tr" transform="translate(53.592673,31.638139) rotate(0)"><polygon id="e5Oo2NKnk795" points="43.09,25.01 46.39,23.95 53.13,27.68 46.2,26.96 43.09,25.01" transform="translate(-48.110001,-25.815001)" opacity="0" fill="#231f20"/></g><g id="e5Oo2NKnk796_tr" transform="translate(53.292673,40.793136) rotate(0)"><polygon id="e5Oo2NKnk796" points="44.63,33.44 47.55,33.69 50.99,36.5 47.42,35.54 44.63,33.44" transform="translate(-47.810001,-34.969999)" opacity="0" fill="#231f20"/></g><path id="e5Oo2NKnk797" d="M42.27,23.82l-13-15.26-10-1.82l1-4.83-3.16,2.63-7.47,6L0,31.33l.29,1.55L1,33l1.71,2.61l2.53-.46l4-4l10.81-4.39-.6-5.54l1.81,5.66-5.19,7.39-3.52,10.36l6.6,3.93l2.34.65l1,1.35l3.14,1.87L46.3,40.5ZM14.52,15.49l-1.78,2.59-1.7.84l1-2.31.7-1.09L14.1,15v0l1.38-1.12Z" transform="translate(5.387328 5.746863)" opacity="0" fill="#231f20"/><polygon id="e5Oo2NKnk798" points="13.8,3.45 12.1,3.13 11.98,4.96 10,4.4 9.92,5.78 4.25,4.93 9.78,8.19 15.26,3.69 15.35,1.02 13.8,3.45" transform="translate(5.482672 5.696256)" opacity="0" fill="#231f20"/></svg>